<?xml version="1.0" standalone="no"?>
<!DOCTYPE svg PUBLIC "-//W3C//DTD SVG 20010904//EN"
 "http://www.w3.org/TR/2001/REC-SVG-20010904/DTD/svg10.dtd">
<svg version="1.0" xmlns="http://www.w3.org/2000/svg"
 width="519.000000pt" height="480.000000pt" viewBox="0 0 519.000000 480.000000"
 preserveAspectRatio="xMidYMid meet">

<g transform="translate(0.000000,480.000000) scale(0.100000,-0.100000)"
fill="#000000" stroke="none">
<path d="M1010 4473 c-52 -31 -198 -115 -325 -188 -126 -73 -288 -167 -360
-208 l-130 -75 -3 -542 c-1 -308 2 -540 7 -538 4 1 67 37 140 78 l131 75 2
379 3 379 325 186 325 186 0 159 c0 98 -4 160 -10 162 -5 2 -53 -22 -105 -53z"/>
<path d="M4067 4523 c-4 -3 -7 -76 -7 -162 l0 -156 316 -180 c174 -99 323
-186 330 -193 11 -11 14 -83 14 -386 l0 -372 123 -71 c67 -40 130 -75 140 -78
16 -7 17 23 17 532 l0 540 -222 128 c-123 71 -302 174 -398 230 -259 150 -306
176 -313 168z"/>
<path d="M1130 3240 l0 -159 118 -69 c118 -69 420 -243 500 -289 l42 -24 0
-383 0 -383 158 -90 c378 -217 478 -275 490 -285 8 -7 12 -42 12 -108 l0 -97
-137 -80 c-76 -44 -224 -129 -330 -189 l-192 -109 -1 -164 c0 -142 2 -162 15
-157 8 3 106 58 218 122 111 64 276 159 366 211 90 52 173 99 185 104 18 9 51
-6 206 -96 468 -270 599 -345 604 -345 3 0 6 73 6 163 l-1 162 -318 183 c-175
101 -323 188 -329 194 -17 17 -16 192 1 206 11 9 385 225 569 329 l78 44 0
383 0 383 223 128 c211 122 300 174 395 229 l42 26 0 160 c0 88 -3 160 -8 160
-8 0 -25 -9 -397 -225 -132 -76 -305 -176 -385 -222 l-145 -83 -5 -386 -5
-386 -56 -32 c-30 -17 -143 -82 -251 -143 -107 -62 -201 -113 -208 -113 -7 0
-125 64 -261 143 l-248 142 -3 385 -3 384 -80 47 c-269 158 -848 489 -856 489
-5 0 -9 -69 -9 -160z"/>
<path d="M190 1341 l0 -539 78 -44 c42 -24 212 -122 377 -218 165 -95 338
-195 384 -222 47 -27 88 -45 93 -40 5 5 7 78 6 163 l-3 154 -140 81 c-77 44
-224 129 -327 188 l-188 108 0 377 0 377 -134 77 c-74 42 -137 77 -140 77 -3
0 -6 -243 -6 -539z"/>
<path d="M4853 1802 l-132 -77 -3 -378 -3 -379 -325 -186 -325 -187 -3 -154
c-1 -85 2 -159 6 -163 6 -6 103 44 238 122 126 73 319 184 429 248 110 63 215
124 233 134 l32 20 0 539 c0 296 -3 539 -7 539 -5 -1 -67 -36 -140 -78z"/>
</g>
</svg>
